<?xml version="1.0" encoding="UTF-8"?>
<svg id="Layer_2" data-name="Layer 2" xmlns="http://www.w3.org/2000/svg" viewBox="0 0 241.16 76.2">
  <defs>
    <style>
      .cls-1, .cls-2, .cls-3, .cls-4, .cls-5 {
        stroke-width: 0px;
      }

      .cls-1, .cls-6 {
        fill: #434043;
      }

      .cls-2 {
        fill: #d0665b;
      }

      .cls-3 {
        fill: #9acce5;
      }

      .cls-4, .cls-7 {
        fill: #e3a645;
      }

      .cls-8 {
        stroke: #434043;
        stroke-linecap: round;
        stroke-linejoin: round;
        stroke-width: .77px;
      }

      .cls-8, .cls-5 {
        fill: none;
      }

      .cls-7 {
        font-family: Poppins-Regular, Poppins;
        font-size: 26.56px;
      }

      .cls-6 {
        font-family: Poppins-ExtraBoldItalic, 'Poppins ExtraBold';
        font-size: 39.13px;
        font-style: italic;
        font-weight: 700;
      }
    </style>
  </defs>
  <g id="OBJECTS">
    <g>
      <g>
        <path class="cls-5" d="M19.6,17.54c1.29,2.43,2.54,4.95,3.79,7.46.67,1.34,1.34,2.68,2.01,4.01h1.83c-1.87-3.62-3.78-7.69-5.55-11.47h-2.09Z"/>
        <path class="cls-5" d="M81.97,33.58c.03-.13.06-.26.08-.39.07-.35.13-.71.19-1.1h-4.41c-.14.58-.27,1-.41,1.23-1.42,2.37-36.84,7.67-42.44,6.24-1.68-.43-3.82-3.41-6.1-7.48h-1.89c3.49,6.55,7.04,11.87,10.57,11.87,13.44,0,39.91-4.52,43.48-8.1.38-.38.68-1.2.92-2.29Z"/>
        <path class="cls-5" d="M78.38,29h4.24c.17-1.84.3-3.82.42-5.64.12-1.92.25-3.89.42-5.83h-3.88c-.33,3.93-.74,8.29-1.19,11.47Z"/>
        <path class="cls-4" d="M21.68,17.54c1.77,3.77,3.67,7.85,5.55,11.47h51.15c.45-3.18.87-7.54,1.19-11.47H21.68Z"/>
        <path class="cls-2" d="M80.15,6.75H17.98c.69,1.36,1.45,2.92,2.25,4.6h59.59c.14-1.84.25-3.46.33-4.6Z"/>
        <path class="cls-3" d="M34.98,40.77c5.59,1.42,41.01-3.87,42.44-6.24.14-.23.28-.66.41-1.23H28.89c2.28,4.06,4.42,7.05,6.1,7.48Z"/>
        <path class="cls-1" d="M91.6,1.53c-5.1,0-6.95,5.86-7.83,12.92H17.91C13.32,6.37,8.21,0,1.54,0,.69,0,0,.69,0,1.54s.69,1.54,1.54,1.54c4.75,0,8.95,4.96,12.78,11.36h-.57c-.85,0-1.54.69-1.54,1.54s.69,1.54,1.54,1.54h2.33c1.57,2.87,3.08,5.9,4.54,8.83.44.89.88,1.77,1.32,2.63h-.55c-.85,0-1.54.69-1.54,1.54s.69,1.54,1.54,1.54h2.12c4.39,8.47,8.58,14.96,14.06,14.96,9.51,0,29.35-2.58,39.72-6.04-7.62,6.57-22.58,9.51-34.3,11.81-11.33,2.23-16.81,3.44-17.37,6.67-.17.99.09,1.91.76,2.67,1.76,1.99,6.27,2.31,8.93,2.31v1.87c-1.52.61-2.59,2.09-2.59,3.83,0,2.28,1.85,4.14,4.14,4.14s4.14-1.85,4.14-4.14c0-1.74-1.07-3.22-2.59-3.83v-1.91h34.06v1.91c-1.52.61-2.59,2.09-2.59,3.83,0,2.28,1.85,4.14,4.14,4.14s4.14-1.85,4.14-4.14c0-1.74-1.07-3.22-2.59-3.83v-1.91h8.07c.85,0,1.54-.69,1.54-1.54s-.69-1.54-1.54-1.54h-9.61s0,0,0,0,0,0,0,0h-37.13s0,0,0,0,0,0,0,0h-.06c-4.1.2-7.8-.54-8.13-1.29.7-1.42,8.93-3.04,14.94-4.22,16.4-3.22,38.79-7.63,41.46-21.92.02-.08.03-.16.05-.24,0-.05.02-.1.03-.15,0,0,0-.01,0-.02.09-.45.17-.92.24-1.43h1.35c.85,0,1.54-.69,1.54-1.54s-.69-1.54-1.54-1.54h-1c.15-1.62.27-3.43.4-5.44.12-1.9.25-3.97.44-6.02h1.08c.85,0,1.54-.69,1.54-1.54s-.69-1.54-1.54-1.54h-.74c.69-5.34,1.96-9.84,4.71-9.84.85,0,1.54-.69,1.54-1.54s-.69-1.54-1.54-1.54ZM27,32.09h55.25c-.06.39-.12.75-.19,1.1-.02.13-.06.26-.08.39-.24,1.09-.54,1.91-.92,2.29-3.57,3.57-30.04,8.1-43.48,8.1-3.53,0-7.08-5.32-10.57-11.87ZM83.03,23.36c-.12,1.82-.24,3.79-.42,5.64H25.4c-.67-1.32-1.34-2.67-2.01-4.01-1.25-2.51-2.5-5.03-3.79-7.46h63.85c-.17,1.93-.3,3.9-.42,5.83Z"/>
      </g>
      <g>
        <g>
          <text class="cls-6" transform="translate(113.6 34.84)"><tspan x="0" y="0">Smart</tspan></text>
          <text class="cls-7" transform="translate(113.6 61.01)"><tspan x="0" y="0">Shop</tspan></text>
        </g>
        <line class="cls-8" x1="101.68" y1="11.35" x2="101.68" y2="59.83"/>
      </g>
    </g>
  </g>
</svg>